<svg width="10" height="6" viewBox="0 0 10 6" fill="none" xmlns="http://www.w3.org/2000/svg">
<path d="M0.74984 0H9.12884C9.27715 3.16682e-05 9.42213 0.0440353 9.54543 0.126448C9.66874 0.208861 9.76485 0.325984 9.8216 0.463009C9.87835 0.600033 9.8932 0.750807 9.86428 0.896272C9.83535 1.04174 9.76395 1.17536 9.65909 1.28025L5.46959 5.46974C5.32894 5.61034 5.13821 5.68933 4.93934 5.68933C4.74047 5.68933 4.54974 5.61034 4.40909 5.46974L0.21959 1.28025C0.114733 1.17536 0.0433282 1.04174 0.0144026 0.896272C-0.0145231 0.750807 0.000329342 0.600033 0.0570819 0.463009C0.113834 0.325984 0.209939 0.208861 0.333246 0.126448C0.456554 0.0440353 0.601528 3.16682e-05 0.74984 0Z" fill="white"/>
</svg>
