<svg width="81" height="41" viewBox="0 0 81 41" fill="none" xmlns="http://www.w3.org/2000/svg">
<path d="M-5.32381e-05 39.6875V0.484305H10.1637C12.8096 0.484305 15.0682 0.790833 16.9396 1.40389C18.8433 1.98468 20.2953 3.03332 21.2955 4.54982C22.328 6.06633 22.8443 8.16362 22.8443 10.8417C22.8443 12.455 22.6991 13.8908 22.4087 15.1492C22.1506 16.3753 21.6666 17.4562 20.9567 18.3919C20.2791 19.2954 19.3111 20.0214 18.0528 20.5699L23.4735 39.6875H15.294L10.7929 21.9251H7.98578V39.6875H-5.32381e-05ZM7.98578 17.182H10.3089C11.5996 17.182 12.616 16.9722 13.3581 16.5528C14.1002 16.1333 14.6164 15.5041 14.9068 14.6652C15.2295 13.794 15.3908 12.7293 15.3908 11.4709C15.3908 9.66398 15.052 8.29268 14.3745 7.35696C13.7291 6.38899 12.503 5.905 10.6961 5.905H7.98578V17.182ZM38.2389 40.2199C35.819 40.2199 33.8024 39.7843 32.1891 38.9131C30.5758 38.0097 29.3497 36.6706 28.5107 34.896C27.7041 33.0891 27.2362 30.7982 27.1072 28.0233L33.9798 26.8618C34.0444 28.4751 34.2057 29.8302 34.4638 30.9273C34.7542 31.9921 35.1737 32.7987 35.7222 33.3472C36.303 33.8635 37.0128 34.1216 37.8517 34.1216C38.8843 34.1216 39.578 33.799 39.9329 33.1536C40.3201 32.5083 40.5137 31.7662 40.5137 30.9273C40.5137 29.2817 40.1104 27.9104 39.3037 26.8134C38.5293 25.6841 37.4968 24.5547 36.2062 23.4254L32.1407 19.8923C30.6887 18.6662 29.4949 17.2788 28.5591 15.73C27.6557 14.1812 27.204 12.2775 27.204 10.0189C27.204 6.79231 28.1397 4.32396 30.0111 2.61386C31.9148 0.871498 34.5122 0.00031576 37.8034 0.00031576C39.7716 0.00031576 41.3849 0.322976 42.6433 0.968298C43.9016 1.61362 44.8696 2.4848 45.5472 3.58184C46.257 4.64662 46.741 5.82433 46.9992 7.11497C47.2896 8.37334 47.467 9.63172 47.5315 10.8901L40.7073 11.9065C40.6428 10.7126 40.5298 9.66398 40.3685 8.76053C40.2394 7.85709 39.949 7.14724 39.4973 6.63098C39.0779 6.11472 38.4325 5.85659 37.5614 5.85659C36.6256 5.85659 35.9319 6.21152 35.4802 6.92137C35.0285 7.59896 34.8026 8.35721 34.8026 9.19613C34.8026 10.5836 35.1091 11.729 35.7222 12.6325C36.3675 13.5036 37.2387 14.4232 38.3357 15.3912L42.3045 18.8759C43.95 20.2956 45.3536 21.9251 46.5152 23.7642C47.709 25.5711 48.3059 27.8136 48.3059 30.4917C48.3059 32.3309 47.8865 33.9926 47.0476 35.4768C46.2086 36.961 45.0309 38.1226 43.5144 38.9615C42.0302 39.8004 40.2717 40.2199 38.2389 40.2199ZM52.0822 39.6875L52.7598 0.484305H61.2296L66.0695 25.2162L71.2482 0.484305H79.4276L80.1052 39.6875H74.2973L73.6681 13.1164L68.683 39.6875H63.698L58.4709 12.9229L57.9385 39.6875H52.0822Z" fill="#B91F24"/>
</svg>
