<svg width="18" height="18" viewBox="0 0 18 18" fill="none" xmlns="http://www.w3.org/2000/svg">
<g clip-path="url(#clip0_1046_7095)">
<path d="M16.8732 8.06979H9.53702V0.733617C9.53702 0.53905 9.45973 0.352451 9.32215 0.214871C9.18457 0.0772916 8.99797 0 8.8034 0V0C8.60884 0 8.42224 0.0772916 8.28466 0.214871C8.14708 0.352451 8.06979 0.53905 8.06979 0.733617V8.06979H0.733617C0.53905 8.06979 0.352451 8.14708 0.214871 8.28466C0.0772916 8.42224 0 8.60884 0 8.8034H0C0 8.99797 0.0772916 9.18457 0.214871 9.32215C0.352451 9.45973 0.53905 9.53702 0.733617 9.53702H8.06979V16.8732C8.06979 17.0678 8.14708 17.2544 8.28466 17.3919C8.42224 17.5295 8.60884 17.6068 8.8034 17.6068C8.99797 17.6068 9.18457 17.5295 9.32215 17.3919C9.45973 17.2544 9.53702 17.0678 9.53702 16.8732V9.53702H16.8732C17.0678 9.53702 17.2544 9.45973 17.3919 9.32215C17.5295 9.18457 17.6068 8.99797 17.6068 8.8034C17.6068 8.60884 17.5295 8.42224 17.3919 8.28466C17.2544 8.14708 17.0678 8.06979 16.8732 8.06979Z" fill="white"/>
</g>
<defs>
<clipPath id="clip0_1046_7095">
<rect width="17.6068" height="17.6068" fill="white"/>
</clipPath>
</defs>
</svg>
